<?xml version="1.0" encoding="utf-8"?>
<!-- Generator: Adobe Illustrator 16.0.4, SVG Export Plug-In . SVG Version: 6.00 Build 0)  -->
<!DOCTYPE svg PUBLIC "-//W3C//DTD SVG 1.1//EN" "http://www.w3.org/Graphics/SVG/1.1/DTD/svg11.dtd">
<svg version="1.1" id="Capa_1" xmlns="http://www.w3.org/2000/svg" xmlns:xlink="http://www.w3.org/1999/xlink" x="0px" y="0px"
	 width="106.334px" height="101.167px" viewBox="0 0 106.334 101.167" enable-background="new 0 0 106.334 101.167"
	 xml:space="preserve">
<g>
	<polygon fill="#4C7A9B" points="32.819,35.362 28.249,32.254 20.429,40.076 45.205,40.076 37.363,32.233 	"/>
	<polygon fill="#4C7A9B" points="46.596,38.685 46.596,25.878 39.01,31.098 	"/>
	<polygon fill="#4C7A9B" points="19.036,25.989 19.036,38.685 26.59,31.127 	"/>
	<polygon fill="#4C7A9B" points="19.036,23.613 32.813,32.976 46.554,23.515 46.596,23.575 46.596,20.389 19.036,20.389 	"/>
	<path fill="#4C7A9B" d="M32.815,2.667C17.591,2.667,5.25,15.008,5.25,30.232c0,15.224,12.342,27.566,27.566,27.566
		c15.225,0,27.566-12.342,27.566-27.566C60.382,15.008,48.04,2.667,32.815,2.667z M48.565,40.076c0,1.086-0.884,1.968-1.969,1.968
		h-27.56c-1.087,0-1.97-0.882-1.97-1.968V20.389c0-1.086,0.883-1.969,1.97-1.969h27.56c1.085,0,1.969,0.883,1.969,1.969V40.076z"/>
</g>
</svg>
