<?xml version="1.0" encoding="utf-8"?>
<!-- Generator: Adobe Illustrator 16.0.4, SVG Export Plug-In . SVG Version: 6.00 Build 0)  -->
<!DOCTYPE svg PUBLIC "-//W3C//DTD SVG 1.1//EN" "http://www.w3.org/Graphics/SVG/1.1/DTD/svg11.dtd">
<svg version="1.1" id="Layer_1" xmlns="http://www.w3.org/2000/svg" xmlns:xlink="http://www.w3.org/1999/xlink" x="0px" y="0px"
	 width="264px" height="265.766px" viewBox="44.5 51.5 264 265.766" enable-background="new 44.5 51.5 264 265.766"
	 xml:space="preserve">
<rect x="73.627" y="273.257" fill="none" width="281.206" height="44.009"/>
<text transform="matrix(1 0 0 1 73.6284 302.0645)" fill="#FFFFFF" font-family="'PTSans-NarrowBold'" font-size="41.1521">THE</text>
<text transform="matrix(1 0 0 1 132.7202 302.0645)" font-family="'PTSans-NarrowBold'" font-size="41.1521"> </text>
<text transform="matrix(1 0 0 1 141.1597 302.0645)" fill="#DF1F26" font-family="'PTSans-NarrowBold'" font-size="41.1521">ROY</text>
<text transform="matrix(1 0 0 1 204.9888 302.0645)" font-family="'PTSans-NarrowBold'" font-size="41.1521"> </text>
<text transform="matrix(1 0 0 1 213.4233 302.0645)" fill="#FFFFFF" font-family="'PTSans-NarrowBold'" font-size="41.1521">MIND</text>
<g>
	<path fill="none" stroke="#FFFFFF" stroke-width="3.4293" stroke-miterlimit="10" d="M101.573,167.455
		c-1.95-8.313-0.779-16.214,10.405-8.224"/>
	<path fill="none" stroke="#FFFFFF" stroke-width="3.4293" stroke-miterlimit="10" d="M88.833,114.649c0,0,9.002-7.503,9.002-12.003
		c0-4.499,7.929-16.934,15.861-12.431c7.931,4.503,9.643,10.076,9.643,10.076s-25.076,15.003-17.254,31.292
		c0,0,52.405,25.734,47.69,40.518"/>
	<path fill="none" stroke="#FFFFFF" stroke-width="3.4293" stroke-miterlimit="10" d="M75.678,172.622
		c-2.951-4.93-3.845-11.968-2.274-24.536"/>
	<path fill="none" stroke="#FFFFFF" stroke-width="3.4293" stroke-miterlimit="10" d="M74.641,170.236
		c0,0-13.027-1.787-8.525-24.723c4.503-22.935,16.718-9.787,17.36-9.715"/>
	<path fill="none" stroke="#FFFFFF" stroke-width="3.4293" stroke-miterlimit="10" d="M81.548,162.016
		c0,0-11.145-39.866,24.542-30.436"/>
	<path fill="none" stroke="#FFFFFF" stroke-width="3.4293" stroke-miterlimit="10" d="M76.404,130.14c0,0-6.214-33.708,32.792-49.14
		"/>
	<path fill="none" stroke="#FFFFFF" stroke-width="3.4293" stroke-miterlimit="10" d="M110.675,89.247
		c0,0-7.051-23.037,22.311-27.111c29.362-4.074,46.401,5.788,46.401,5.788v78.155c0,0,3.969,30.514-16.395,30.085
		c-10.487-1.508-12.029-13.93-8.158-29.148c3.872-15.22-1.273-26.276-4.061-28.358c-2.788-2.081-16.289-6.265-25.507,4.507"/>
	<path fill="none" stroke="#FFFFFF" stroke-width="3.4293" stroke-miterlimit="10" d="M147.334,117.101c0,0,1.512-9.951,8.37-14.025
		"/>
	<path fill="none" stroke="#FFFFFF" stroke-width="3.4293" stroke-miterlimit="10" d="M123.342,100.287
		c0,0,34.964-27.863,56.358-1.715"/>
	<path fill="none" stroke="#FFFFFF" stroke-width="3.4293" stroke-miterlimit="10" d="M178.041,73.71c0,0-23.75-6.427-41.541,0"/>
	<path fill="none" stroke="#FFFFFF" stroke-width="3.4293" stroke-miterlimit="10" d="M256.338,168.089
		c2.005-8.356,0.986-16.907-10.279-8.858"/>
	<path fill="none" stroke="#FFFFFF" stroke-width="3.4293" stroke-miterlimit="10" d="M269.203,114.649
		c0,0-9.002-7.503-9.002-12.003c0-4.499-7.928-16.934-15.86-12.431c-7.933,4.503-9.643,10.076-9.643,10.076
		s25.075,15.003,17.252,31.292c0,0-52.403,25.734-47.688,40.518"/>
	<path fill="none" stroke="#FFFFFF" stroke-width="3.4293" stroke-miterlimit="10" d="M282.62,172.101
		c2.742-4.965,3.53-11.888,2.015-24.015"/>
	<path fill="none" stroke="#FFFFFF" stroke-width="3.4293" stroke-miterlimit="10" d="M283.396,170.236
		c0,0,13.03-1.787,8.527-24.723c-4.502-22.935-16.718-9.787-17.36-9.715"/>
	<path fill="none" stroke="#FFFFFF" stroke-width="3.4293" stroke-miterlimit="10" d="M276.49,162.016
		c0,0,11.146-39.866-24.541-30.436"/>
	<path fill="none" stroke="#FFFFFF" stroke-width="3.4293" stroke-miterlimit="10" d="M281.634,130.14
		c0,0,6.214-33.708-32.792-49.14"/>
	<path fill="none" stroke="#FFFFFF" stroke-width="3.4293" stroke-miterlimit="10" d="M247.364,89.247
		c0,0,7.052-23.037-22.311-27.111c-29.362-4.074-46.403,5.788-46.403,5.788v78.155c0,0-3.967,30.514,16.396,30.085
		c10.486-1.508,12.03-13.93,8.158-29.148c-3.872-15.22,1.273-26.276,4.061-28.358c2.788-2.081,16.289-6.265,25.507,4.507"/>
	<path fill="none" stroke="#FFFFFF" stroke-width="3.4293" stroke-miterlimit="10" d="M210.705,117.101
		c0,0-1.512-9.951-8.371-14.025"/>
	<path fill="none" stroke="#FFFFFF" stroke-width="3.4293" stroke-miterlimit="10" d="M234.697,100.287
		c0,0-34.967-27.863-56.358-1.715"/>
	<path fill="none" stroke="#FFFFFF" stroke-width="3.4293" stroke-miterlimit="10" d="M221.041,73.71
		c-17.791-6.427-41.541,0-41.541,0"/>
</g>
<g>
	<path fill="#FFFFFF" d="M153.915,170.733c-25.802-12.661-73.515-5.357-73.515-5.357c-17.942,1.726-19.475,18.988-19.475,18.988
		s0.488,38.95,12.172,52.582c11.683,13.632,49.114,13.316,55.013,11.69c5.901-1.62,21.423,0.968,35.054-36.521
		C176.796,174.629,153.915,170.733,153.915,170.733z M157.312,211.421c-12.002,33.008-25.668,30.729-30.864,32.159
		c-5.194,1.43-38.151,1.706-48.439-10.297c-10.289-12.002-10.717-46.296-10.717-46.296s1.348-15.194,17.146-16.718
		c0,0,42.01-6.43,64.729,4.715C149.167,174.984,169.315,178.414,157.312,211.421z"/>
	<path fill="#FFFFFF" d="M279.069,165.513c0,0-47.556-7.28-73.272,5.337c0,0-22.805,3.881-9.219,41.244
		c13.587,37.367,29.057,34.785,34.938,36.404c5.881,1.617,43.188,1.926,54.833-11.655c11.646-13.58,12.128-52.402,12.128-52.402
		S296.949,167.232,279.069,165.513z M280.728,233.283c-10.288,12.003-43.243,11.727-48.439,10.297
		c-5.196-1.43-18.861,0.849-30.864-32.159c-9.001-24.755,0.081-32.874,5.185-35.386c1.701-0.837,2.96-1.051,2.96-1.051
		c22.719-11.145,64.729-4.715,64.729-4.715c15.795,1.524,17.146,16.718,17.146,16.718S291.016,221.281,280.728,233.283z"/>
	<path fill="#FFFFFF" d="M165.979,202.873c0,0,4.192-9.952,14.626-9.667c11.697,0.318,13.162,9.667,13.162,9.667
		s-3.413-25.36,10.698-29.814c14.112-4.455-25.932,1.231-25.932,1.231l-20.162-2.232l1.299,5.928l5.572,17.36L165.979,202.873z"/>
</g>
</svg>
