<?xml version="1.0" encoding="utf-8"?>
<!-- Generator: Adobe Illustrator 16.0.4, SVG Export Plug-In . SVG Version: 6.00 Build 0)  -->
<!DOCTYPE svg PUBLIC "-//W3C//DTD SVG 1.1//EN" "http://www.w3.org/Graphics/SVG/1.1/DTD/svg11.dtd">
<svg version="1.1" id="Capa_1" xmlns="http://www.w3.org/2000/svg" xmlns:xlink="http://www.w3.org/1999/xlink" x="0px" y="0px"
	 width="62.667px" height="59.333px" viewBox="0 0 62.667 59.333" enable-background="new 0 0 62.667 59.333" xml:space="preserve">
<path fill="#D97904" d="M32.814,2.833c-15.212,0-27.541,12.331-27.541,27.542s12.329,27.541,27.541,27.541
	c15.21,0,27.542-12.33,27.542-27.541S48.025,2.833,32.814,2.833z M44.015,25.395c0.012,0.233,0.015,0.466,0.015,0.703
	c0,7.167-5.456,15.433-15.433,15.433c-3.063,0-5.914-0.898-8.313-2.438c0.423,0.051,0.854,0.077,1.293,0.077
	c2.542,0,4.88-0.867,6.738-2.323c-2.374-0.042-4.378-1.611-5.069-3.767c0.333,0.063,0.672,0.097,1.021,0.097
	c0.494,0,0.973-0.065,1.429-0.19c-2.481-0.498-4.352-2.689-4.352-5.319c0-0.023,0-0.045,0.001-0.068
	c0.731,0.407,1.568,0.65,2.457,0.679c-1.457-0.974-2.413-2.634-2.413-4.516c0-0.993,0.267-1.924,0.734-2.726
	c2.674,3.282,6.672,5.44,11.179,5.667c-0.093-0.397-0.14-0.812-0.14-1.237c0-2.995,2.429-5.423,5.424-5.423
	c1.561,0,2.97,0.658,3.959,1.713c1.236-0.244,2.397-0.694,3.445-1.317c-0.406,1.267-1.266,2.33-2.385,3
	c1.097-0.131,2.143-0.422,3.116-0.854C45.996,23.675,45.076,24.63,44.015,25.395z"/>
</svg>
